<mxfile host="app.diagrams.net" modified="2020-07-05T12:11:00.096Z" agent="5.0 (Macintosh; Intel Mac OS X 10_15_5) AppleWebKit/537.36 (KHTML, like Gecko) Chrome/83.0.4103.116 Safari/537.36" etag="ZoVSQbKJ-FBbdkdyZREQ" version="13.3.5" type="github">
  <diagram id="22dLS5i6UKY8pTKVOaB0" name="Page-1">
    <mxGraphModel dx="2719" dy="944" grid="1" gridSize="10" guides="1" tooltips="1" connect="1" arrows="1" fold="1" page="1" pageScale="1" pageWidth="827" pageHeight="1169" math="0" shadow="0">
      <root>
        <mxCell id="0" />
        <mxCell id="1" parent="0" />
        <mxCell id="UksIu8x5vFuFx5vDPhic-1" value="&lt;font style=&quot;font-size: 20px&quot;&gt;GESTION DES PROFILS&lt;/font&gt;" style="strokeWidth=2;html=1;shape=mxgraph.flowchart.multi-document;whiteSpace=wrap;" vertex="1" parent="1">
          <mxGeometry x="360" y="50" width="300" height="140" as="geometry" />
        </mxCell>
        <mxCell id="UksIu8x5vFuFx5vDPhic-2" value="&lt;font style=&quot;font-size: 20px&quot;&gt;GESTION &lt;br&gt;ADMINISTRATIVE&lt;/font&gt;" style="strokeWidth=2;html=1;shape=mxgraph.flowchart.multi-document;whiteSpace=wrap;" vertex="1" parent="1">
          <mxGeometry x="790" y="350" width="300" height="140" as="geometry" />
        </mxCell>
        <mxCell id="UksIu8x5vFuFx5vDPhic-3" value="&lt;span style=&quot;font-size: 20px&quot;&gt;GESTION DES&lt;br&gt;&lt;/span&gt;&lt;font style=&quot;font-size: 20px&quot;&gt;COMMANDES, STOCKS&lt;br&gt;&amp;amp; LIVRAISONS&lt;/font&gt;" style="strokeWidth=2;html=1;shape=mxgraph.flowchart.multi-document;whiteSpace=wrap;" vertex="1" parent="1">
          <mxGeometry x="360" y="650" width="300" height="140" as="geometry" />
        </mxCell>
        <mxCell id="UksIu8x5vFuFx5vDPhic-4" value="&lt;span style=&quot;font-size: 20px&quot;&gt;AUTHENTIFICATION&lt;/span&gt;" style="strokeWidth=2;html=1;shape=mxgraph.flowchart.multi-document;whiteSpace=wrap;" vertex="1" parent="1">
          <mxGeometry x="-70" y="350" width="300" height="140" as="geometry" />
        </mxCell>
        <mxCell id="UksIu8x5vFuFx5vDPhic-5" value="&lt;span style=&quot;font-size: 20px&quot;&gt;PRISE DE COMMANDE&lt;/span&gt;" style="strokeWidth=2;html=1;shape=mxgraph.flowchart.multi-document;whiteSpace=wrap;" vertex="1" parent="1">
          <mxGeometry x="360" y="350" width="300" height="140" as="geometry" />
        </mxCell>
        <mxCell id="UksIu8x5vFuFx5vDPhic-6" value="" style="endArrow=classic;html=1;entryX=0.557;entryY=-0.014;entryDx=0;entryDy=0;entryPerimeter=0;exitX=0;exitY=0.5;exitDx=0;exitDy=0;exitPerimeter=0;dashed=1;" edge="1" parent="1" source="UksIu8x5vFuFx5vDPhic-1" target="UksIu8x5vFuFx5vDPhic-4">
          <mxGeometry width="50" height="50" relative="1" as="geometry">
            <mxPoint x="380" y="580" as="sourcePoint" />
            <mxPoint x="430" y="530" as="targetPoint" />
          </mxGeometry>
        </mxCell>
        <mxCell id="UksIu8x5vFuFx5vDPhic-7" value="" style="endArrow=classic;html=1;dashed=1;exitX=0.5;exitY=0;exitDx=0;exitDy=0;exitPerimeter=0;entryX=1;entryY=0.5;entryDx=0;entryDy=0;entryPerimeter=0;" edge="1" parent="1" source="UksIu8x5vFuFx5vDPhic-2" target="UksIu8x5vFuFx5vDPhic-1">
          <mxGeometry width="50" height="50" relative="1" as="geometry">
            <mxPoint x="390" y="260" as="sourcePoint" />
            <mxPoint x="440" y="210" as="targetPoint" />
          </mxGeometry>
        </mxCell>
        <mxCell id="UksIu8x5vFuFx5vDPhic-8" value="" style="endArrow=classic;html=1;dashed=1;entryX=0.5;entryY=0;entryDx=0;entryDy=0;entryPerimeter=0;exitX=0.5;exitY=0.88;exitDx=0;exitDy=0;exitPerimeter=0;" edge="1" parent="1" source="UksIu8x5vFuFx5vDPhic-2" target="UksIu8x5vFuFx5vDPhic-3">
          <mxGeometry width="50" height="50" relative="1" as="geometry">
            <mxPoint x="810" y="330" as="sourcePoint" />
            <mxPoint x="860" y="280" as="targetPoint" />
          </mxGeometry>
        </mxCell>
        <mxCell id="UksIu8x5vFuFx5vDPhic-9" value="" style="endArrow=classic;html=1;dashed=1;entryX=0.5;entryY=0;entryDx=0;entryDy=0;entryPerimeter=0;exitX=0.5;exitY=0.88;exitDx=0;exitDy=0;exitPerimeter=0;" edge="1" parent="1" source="UksIu8x5vFuFx5vDPhic-4" target="UksIu8x5vFuFx5vDPhic-3">
          <mxGeometry width="50" height="50" relative="1" as="geometry">
            <mxPoint x="810" y="330" as="sourcePoint" />
            <mxPoint x="860" y="280" as="targetPoint" />
          </mxGeometry>
        </mxCell>
        <mxCell id="UksIu8x5vFuFx5vDPhic-10" value="" style="endArrow=classic;html=1;dashed=1;entryX=0;entryY=0.5;entryDx=0;entryDy=0;entryPerimeter=0;exitX=1;exitY=0.5;exitDx=0;exitDy=0;exitPerimeter=0;" edge="1" parent="1" source="UksIu8x5vFuFx5vDPhic-4" target="UksIu8x5vFuFx5vDPhic-5">
          <mxGeometry width="50" height="50" relative="1" as="geometry">
            <mxPoint x="810" y="570" as="sourcePoint" />
            <mxPoint x="860" y="520" as="targetPoint" />
          </mxGeometry>
        </mxCell>
        <mxCell id="UksIu8x5vFuFx5vDPhic-13" value="" style="endArrow=classic;html=1;dashed=1;exitX=0.5;exitY=0.88;exitDx=0;exitDy=0;exitPerimeter=0;entryX=0.5;entryY=0;entryDx=0;entryDy=0;entryPerimeter=0;" edge="1" parent="1" source="UksIu8x5vFuFx5vDPhic-5" target="UksIu8x5vFuFx5vDPhic-3">
          <mxGeometry width="50" height="50" relative="1" as="geometry">
            <mxPoint x="430" y="410" as="sourcePoint" />
            <mxPoint x="520" y="650" as="targetPoint" />
          </mxGeometry>
        </mxCell>
      </root>
    </mxGraphModel>
  </diagram>
</mxfile>
